<svg width="20" height="20" viewBox="0 0 20 20" fill="none" xmlns="http://www.w3.org/2000/svg">
<path fill-rule="evenodd" clip-rule="evenodd" d="M9.11243 2.44544C10.011 1.54683 11.2298 1.04199 12.5006 1.04199H15.0006C15.3458 1.04199 15.6256 1.32181 15.6256 1.66699V5.00032C15.6256 5.3455 15.3458 5.62532 15.0006 5.62532H12.5006C12.4454 5.62532 12.3924 5.64727 12.3533 5.68634C12.3143 5.72541 12.2923 5.77841 12.2923 5.83366V7.70866H15.0006C15.1931 7.70866 15.3748 7.79733 15.4933 7.94903C15.6117 8.10072 15.6537 8.29853 15.607 8.48524L14.7737 11.8186C14.7041 12.0968 14.4541 12.292 14.1673 12.292H12.2923V18.3337C12.2923 18.6788 12.0125 18.9587 11.6673 18.9587H8.33398C7.98881 18.9587 7.70898 18.6788 7.70898 18.3337V12.292H5.83398C5.48881 12.292 5.20898 12.0122 5.20898 11.667V8.33366C5.20898 7.98848 5.48881 7.70866 5.83398 7.70866H7.70898V5.83366C7.70898 4.56283 8.21382 3.34405 9.11243 2.44544ZM12.5006 2.29199C11.5613 2.29199 10.6605 2.66513 9.99631 3.32932C9.33212 3.99351 8.95898 4.89435 8.95898 5.83366V8.33366C8.95898 8.67884 8.67916 8.95866 8.33398 8.95866H6.45898V11.042H8.33398C8.67916 11.042 8.95898 11.3218 8.95898 11.667V17.7087H11.0423V11.667C11.0423 11.3218 11.3221 11.042 11.6673 11.042H13.6793L14.2002 8.95866H11.6673C11.3221 8.95866 11.0423 8.67884 11.0423 8.33366V5.83366C11.0423 5.44688 11.196 5.07595 11.4695 4.80246C11.7429 4.52897 12.1139 4.37532 12.5006 4.37532H14.3756V2.29199H12.5006Z" fill="white"/>
</svg>
