<svg width="20" height="20" viewBox="0 0 20 20" fill="none" xmlns="http://www.w3.org/2000/svg">
<path fill-rule="evenodd" clip-rule="evenodd" d="M5.82096 2.21387C3.86495 2.21387 2.2793 3.79953 2.2793 5.75553V14.0889C2.2793 16.0449 3.86495 17.6305 5.82096 17.6305H14.1543C16.1103 17.6305 17.696 16.0449 17.696 14.0889V5.75553C17.696 3.79953 16.1103 2.21387 14.1543 2.21387H5.82096ZM1.0293 5.75553C1.0293 3.10917 3.1746 0.963867 5.82096 0.963867H14.1543C16.8007 0.963867 18.946 3.10917 18.946 5.75553V14.0889C18.946 16.7352 16.8007 18.8805 14.1543 18.8805H5.82096C3.1746 18.8805 1.0293 16.7352 1.0293 14.0889V5.75553Z" fill="white"/>
<path fill-rule="evenodd" clip-rule="evenodd" d="M10.422 7.20703C9.85851 7.12347 9.28301 7.21972 8.77737 7.48209C8.27172 7.74446 7.86168 8.15959 7.60557 8.66843C7.34945 9.17727 7.26031 9.75392 7.35081 10.3163C7.44131 10.8788 7.70685 11.3983 8.10966 11.8012C8.51247 12.204 9.03204 12.4695 9.59447 12.56C10.1569 12.6505 10.7335 12.5614 11.2424 12.3052C11.7512 12.0491 12.1664 11.6391 12.4287 11.1334C12.6911 10.6278 12.7873 10.0523 12.7038 9.4888C12.6185 8.91401 12.3507 8.38187 11.9398 7.97099C11.5289 7.56011 10.9968 7.29227 10.422 7.20703ZM8.20165 6.37256C8.94067 5.9891 9.78179 5.84843 10.6054 5.97055C11.4454 6.09513 12.2232 6.48659 12.8237 7.08711C13.4242 7.68763 13.8157 8.46537 13.9403 9.30545C14.0624 10.129 13.9217 10.9701 13.5383 11.7092C13.1548 12.4482 12.5481 13.0475 11.8044 13.4218C11.0607 13.7961 10.2179 13.9264 9.39588 13.7941C8.57387 13.6619 7.8145 13.2738 7.22578 12.685C6.63705 12.0963 6.24896 11.3369 6.11668 10.5149C5.98441 9.69292 6.1147 8.85014 6.48902 8.10644C6.86334 7.36275 7.46263 6.75603 8.20165 6.37256Z" fill="white"/>
<path fill-rule="evenodd" clip-rule="evenodd" d="M13.9473 5.33887C13.9473 4.99369 14.2271 4.71387 14.5723 4.71387H14.5806C14.9258 4.71387 15.2056 4.99369 15.2056 5.33887C15.2056 5.68405 14.9258 5.96387 14.5806 5.96387H14.5723C14.2271 5.96387 13.9473 5.68405 13.9473 5.33887Z" fill="white"/>
</svg>
