<svg width="20" height="20" viewBox="0 0 20 20" fill="none" xmlns="http://www.w3.org/2000/svg">
<g clip-path="url(#clip0_248_850)">
<path d="M18.1673 6.83366C18.1673 6.33366 18.1673 5.91699 18.1673 5.41699C18.1673 5.25032 18.084 5.00033 18.0006 4.91699C17.9173 4.75033 17.6673 4.75032 17.5006 4.66699C17.334 4.66699 17.1673 4.66699 17.084 4.66699C15.4173 4.41699 14.2507 3.08366 14.1673 1.41699C14.1673 1.16699 14.084 1.00033 13.9173 0.833659C13.7507 0.666992 13.584 0.666992 13.334 0.666992H10.6673C10.4173 0.666992 10.1673 0.750326 10.0007 0.833659C9.83398 1.00033 9.83398 1.25033 9.83398 1.50033V13.0003C9.83398 13.167 9.83398 13.417 9.75065 13.5837C9.58398 14.417 8.75065 15.0003 7.91732 15.0003C7.83398 15.0003 7.66732 15.0003 7.58398 15.0003C6.66732 14.8337 6.08398 14.0837 6.08398 13.167V13.0003C6.16732 12.0837 6.91732 11.3337 7.91732 11.3337C8.08398 11.3337 8.33398 11.2503 8.41732 11.167C8.58398 11.0837 8.66732 10.8337 8.66732 10.667C8.66732 10.167 8.66732 9.66699 8.66732 9.25033C8.66732 8.75033 8.66732 8.25032 8.66732 7.83366C8.66732 7.66699 8.58398 7.41699 8.41732 7.33366C8.33398 7.08366 8.16732 7.00032 7.91732 7.00032C7.33398 7.00032 6.66732 7.08366 6.08398 7.33366C3.50065 8.16699 1.83398 10.5837 1.83398 13.167C1.83398 13.5003 1.83398 13.917 1.91732 14.2503C2.33398 16.667 4.16732 18.5837 6.50065 19.167C6.83398 19.2503 7.16732 19.2503 7.41732 19.3337H8.33398C8.58398 19.3337 8.83398 19.2503 9.00065 19.2503C11.7507 18.7503 13.9173 16.2503 14.0006 13.417C14.0006 12.5837 14.0006 11.667 14.0006 10.8337C14.0006 10.0003 14.0006 9.16699 14.0006 8.25032C15.0006 8.75032 16.084 9.00032 17.2506 9.00032C17.5006 9.00032 17.6673 8.91699 17.7506 8.83366C17.9173 8.66699 18.0006 8.50032 18.0006 8.33366C18.1673 7.83366 18.1673 7.33366 18.1673 6.83366ZM13.9173 6.50033C13.7507 6.41699 13.584 6.33366 13.4173 6.33366H13.1673C12.834 6.41699 12.6673 6.75032 12.6673 7.08366V8.50032C12.6673 9.41699 12.6673 10.3337 12.6673 11.3337C12.6673 12.0003 12.6673 12.7503 12.6673 13.417C12.6673 15.5837 10.9173 17.5837 8.75065 17.917C8.50065 17.917 8.25065 18.0003 8.00065 18.0003C5.66732 18.0003 3.66732 16.3337 3.25065 13.917C3.25065 13.667 3.16732 13.5003 3.16732 13.2503C3.16732 11.0003 4.83398 9.00032 7.08398 8.58366H7.16732V10.0837C5.66732 10.417 4.66732 11.667 4.58398 13.167V13.3337C4.58398 14.917 5.91732 16.417 7.50065 16.5837C7.58398 16.5837 7.75065 16.5837 7.83398 16.5837C9.41732 16.5837 10.834 15.5003 11.084 13.8337C11.1673 13.5837 11.1673 13.3337 11.1673 13.167C11.1673 9.50032 11.1673 5.91699 11.1673 2.33366V2.16699H12.6673C12.6673 2.33366 12.7507 2.50033 12.7507 2.66699C13.334 4.58366 14.6673 5.75033 16.584 6.08366V7.58366C16.2506 7.50033 15.834 7.41699 15.5006 7.33366C15.0006 7.16699 14.4173 6.83366 13.9173 6.50033Z" fill="white"/>
</g>
<defs>
<clipPath id="clip0_248_850">
<rect width="20" height="20" fill="white"/>
</clipPath>
</defs>
</svg>
