<svg width="20" height="20" viewBox="0 0 20 20" fill="none" xmlns="http://www.w3.org/2000/svg">
<g clip-path="url(#clip0_248_852)">
<path fill-rule="evenodd" clip-rule="evenodd" d="M10.001 2.70801C10.0011 2.70801 10.0011 2.70801 10.0011 3.33301L10.0011 3.95801L9.93777 3.9581C9.89591 3.95819 9.83414 3.95838 9.7549 3.95875C9.59642 3.95949 9.36812 3.96098 9.08958 3.96396C8.53226 3.96992 7.77497 3.98184 6.97386 4.00565C6.17175 4.02948 5.33072 4.06509 4.60441 4.11807C3.86427 4.17206 3.29511 4.24093 3.00029 4.31896C2.71553 4.40034 2.45711 4.55506 2.25087 4.76767C2.04809 4.97672 1.9028 5.23449 1.82891 5.51597C1.57604 6.92585 1.45238 8.35587 1.45945 9.78825L1.45949 9.79526C1.45045 11.2349 1.57345 12.6723 1.827 14.0894C1.90856 14.3584 2.05591 14.6029 2.25589 14.8008C2.46226 15.0051 2.71771 15.1528 2.99766 15.2297C3.29173 15.308 3.86206 15.3771 4.60441 15.4313C5.33072 15.4843 6.17175 15.5199 6.97386 15.5437C7.77497 15.5675 8.53226 15.5794 9.08958 15.5854C9.36812 15.5884 9.59642 15.5899 9.7549 15.5906C9.83414 15.591 9.89591 15.5912 9.93777 15.5912L10.0011 15.5913L10.0011 16.2163C10.0011 16.8413 10.0011 16.8413 10.001 16.8413L9.93501 16.8412C9.89218 16.8412 9.82937 16.841 9.74904 16.8406C9.58839 16.8398 9.35757 16.8383 9.07621 16.8353C8.51375 16.8293 7.74812 16.8173 6.93673 16.7931C6.12634 16.7691 5.26528 16.7328 4.51347 16.678C3.77914 16.6244 3.0961 16.5499 2.67298 16.4368L2.66951 16.4358C2.18151 16.3023 1.7362 16.0452 1.3766 15.6893C1.017 15.3334 0.75527 14.8908 0.616695 14.4042C0.611045 14.3844 0.606382 14.3643 0.60272 14.344C0.331731 12.8416 0.200082 11.3175 0.209451 9.79093C0.202179 8.2758 0.333817 6.76319 0.602715 5.27209C0.605187 5.25838 0.608116 5.24476 0.611497 5.23125C0.737194 4.72906 0.99319 4.26894 1.35363 3.89735C1.71407 3.52576 2.16619 3.25588 2.66431 3.11495L2.67297 3.1125C3.09608 2.99934 3.77914 2.92494 4.51347 2.87138C5.26528 2.81655 6.12634 2.78028 6.93673 2.7562C7.74812 2.73209 8.51375 2.72005 9.07621 2.71403C9.35757 2.71102 9.58839 2.70952 9.74904 2.70876C9.82937 2.70839 9.89218 2.7082 9.93501 2.7081L10.001 2.70801ZM17.0019 15.2304C16.7071 15.3084 16.138 15.3773 15.3978 15.4313C14.6715 15.4843 13.8305 15.5199 13.0284 15.5437C12.2273 15.5675 11.47 15.5794 10.9127 15.5854C10.6341 15.5884 10.4058 15.5899 10.2473 15.5906C10.1681 15.591 10.1063 15.5912 10.0645 15.5912L10.0011 15.5913L10.0011 16.2163C10.0011 16.8413 10.0011 16.8413 10.001 16.8413L10.0672 16.8412C10.1101 16.8412 10.1729 16.841 10.2532 16.8406C10.4139 16.8398 10.6447 16.8383 10.926 16.8353C11.4885 16.8293 12.2541 16.8173 13.0655 16.7931C13.8759 16.7691 14.737 16.7328 15.4888 16.678C16.2231 16.6244 16.9062 16.5499 17.3293 16.4368L17.3379 16.4344C17.8361 16.2935 18.2882 16.0236 18.6486 15.652C19.0091 15.2804 19.2651 14.8203 19.3908 14.3181C19.3941 14.3046 19.3971 14.291 19.3995 14.2772C19.6664 12.7973 19.798 11.2961 19.7928 9.79221C19.8022 8.26552 19.6706 6.74121 19.3995 5.23873C19.3971 5.22503 19.3941 5.21142 19.3908 5.19792C19.2651 4.69573 19.0091 4.23561 18.6486 3.86402C18.2882 3.49243 17.8361 3.22254 17.3379 3.08161C17.3307 3.07956 17.3234 3.07764 17.3161 3.07585C16.8979 2.97374 16.2194 2.90596 15.4848 2.85705C14.7341 2.80705 13.8739 2.77397 13.0639 2.75199C12.253 2.72999 11.4877 2.719 10.9255 2.71351C10.6442 2.71076 10.4135 2.70938 10.253 2.7087C10.1727 2.70835 10.1099 2.70818 10.0671 2.70809L10.001 2.70801C10.0011 2.70801 10.0011 2.70801 10.0011 3.33301L10.0011 3.95801L10.0646 3.95809L10.2476 3.95869C10.4062 3.95937 10.6346 3.96072 10.9133 3.96345C11.4708 3.96889 12.2285 3.97978 13.03 4.00153C13.8325 4.0233 14.6744 4.05584 15.4018 4.10428C16.1363 4.1532 16.7069 4.21572 17.0084 4.28749C17.2906 4.36936 17.5467 4.52334 17.7514 4.73434C17.9542 4.94339 18.0995 5.20117 18.1734 5.48266C18.4282 6.9032 18.5519 8.34419 18.5428 9.78742L18.5428 9.79359C18.5479 11.2151 18.4242 12.6342 18.1733 14.0334C18.0995 14.3149 17.9542 14.5726 17.7514 14.7817C17.5451 14.9943 17.2867 15.149 17.0019 15.2304Z" fill="white"/>
<path fill-rule="evenodd" clip-rule="evenodd" d="M7.81074 6.52616C8.00312 6.41425 8.2405 6.41309 8.43397 6.52312L13.2256 9.24812C13.421 9.35922 13.5417 9.56666 13.5417 9.79141C13.5417 10.0162 13.421 10.2236 13.2256 10.3347L8.43397 13.0597C8.2405 13.1697 8.00312 13.1686 7.81074 13.0567C7.61836 12.9447 7.5 12.739 7.5 12.5164V7.06641C7.5 6.84384 7.61836 6.63807 7.81074 6.52616ZM8.75 8.14084V11.442L11.6524 9.79141L8.75 8.14084Z" fill="white"/>
</g>
<defs>
<clipPath id="clip0_248_852">
<rect width="20" height="20" fill="white"/>
</clipPath>
</defs>
</svg>
