<svg width="20" height="20" viewBox="0 0 20 20" fill="none" xmlns="http://www.w3.org/2000/svg">
<path d="M18.166 17.917C15.8327 14.5003 14.3327 11.917 11.9993 8.50032L11.916 8.41699C14.0827 5.83366 15.4993 4.16699 17.666 1.58366C17.7275 1.52215 17.684 1.41699 17.597 1.41699H17.5827C17.2493 1.41699 16.9993 1.41699 16.666 1.41699C16.4993 1.41699 16.416 1.41699 16.2493 1.41699C16.0827 1.41699 15.916 1.50033 15.8327 1.66699C14.2493 3.50033 13.4993 4.50032 11.916 6.33366C11.666 6.66699 11.416 6.91699 11.0827 7.25032C9.49935 5.00032 8.91601 3.75033 7.41601 1.58366C7.33268 1.50033 7.24935 1.41699 7.08268 1.41699H3.33268H2.91602H1.96651C1.83806 1.41699 1.76144 1.56015 1.83268 1.66703C4.16602 5.00037 5.83268 7.50037 7.91601 10.8337L7.83268 10.917C5.99935 13.0837 4.91602 14.417 3.08268 16.5837C2.66602 17.0837 2.24935 17.5837 1.83268 18.0837C1.77118 18.1452 1.81474 18.2503 1.90172 18.2503H3.58268V18.167C4.33268 17.3337 4.99935 16.5003 5.74935 15.667C6.99935 14.167 7.41601 13.5837 8.74935 12.0837L8.83268 12.0003C10.416 14.2503 11.2493 15.667 12.7493 18.0003L12.8327 18.0837V18.167H18.0322C18.1607 18.167 18.2373 18.0239 18.166 17.917ZM6.49935 2.91699C9.99935 7.91699 11.7493 11.167 15.2493 16.167C15.416 16.417 15.5827 16.5837 15.7493 16.8337C15.3327 16.8337 14.8327 16.8337 14.416 16.8337C14.166 16.8337 13.9993 16.8337 13.7493 16.8337C13.666 16.8337 13.666 16.8337 13.5827 16.7503C10.2493 11.917 8.49935 8.75032 5.16601 3.91699C4.91601 3.50033 4.58268 3.16699 4.33268 2.75033H4.58268C5.16602 2.75033 5.74935 2.75033 6.41601 2.75033C6.41601 2.83366 6.41602 2.83366 6.49935 2.91699Z" fill="white"/>
</svg>
