<svg width="44" height="32" viewBox="0 0 44 32" fill="none" xmlns="http://www.w3.org/2000/svg">
<path d="M37.5338 10.971C38.5529 9.90232 39.1807 8.45728 39.1807 6.86752C39.1807 3.58574 36.5107 0.915751 33.2289 0.915751C31.2499 0.915751 29.4945 1.88753 28.4118 3.37803C27.0069 1.33951 24.6574 0 22 0C19.3426 0 16.9931 1.33951 15.5883 3.37795C14.5056 1.88745 12.7502 0.915665 10.7711 0.915665C7.48937 0.915665 4.81938 3.58566 4.81938 6.86744C4.81938 8.45728 5.44715 9.90241 6.46628 10.971C2.66372 12.6355 0 16.4338 0 20.8433C0 22.9824 1.74041 24.7228 3.87956 24.7228H8.45023C8.3759 25.2989 8.33731 25.8859 8.33731 26.4818C8.33731 29.0461 10.4235 31.1325 12.988 31.1325H31.0119C33.5763 31.1325 35.6627 29.0463 35.6627 26.4818C35.6627 25.8859 35.624 25.2989 35.5498 24.7228H40.1204C42.2596 24.7228 44 22.9825 44 20.8433C44 16.4338 41.3364 12.6355 37.5338 10.971ZM33.229 3.66266C34.9962 3.66266 36.4338 5.10031 36.4338 6.86744C36.4338 8.63457 34.9962 10.0722 33.229 10.0722C31.4619 10.0722 30.0242 8.63457 30.0242 6.86744C30.0242 5.10031 31.4619 3.66266 33.229 3.66266ZM22.0001 2.74699C24.777 2.74699 27.0362 5.0062 27.0362 7.7831C27.0362 10.56 24.777 12.8192 22.0001 12.8192C19.2232 12.8192 16.964 10.56 16.964 7.7831C16.9639 5.0062 19.2231 2.74699 22.0001 2.74699ZM10.7711 3.66266C12.5383 3.66266 13.9759 5.10031 13.9759 6.86744C13.9759 8.63457 12.5383 10.0722 10.7711 10.0722C9.00402 10.0722 7.56637 8.63457 7.56637 6.86744C7.56628 5.10031 9.00393 3.66266 10.7711 3.66266ZM9.1019 21.9759H3.87956C3.25505 21.9759 2.74699 21.4679 2.74699 20.8433C2.74699 16.4188 6.34666 12.8192 10.7712 12.8192C12.5291 12.8192 14.209 13.3897 15.5842 14.4225C12.5795 16.0274 10.2418 18.7224 9.1019 21.9759ZM31.012 28.3855H12.988C11.9383 28.3855 11.0843 27.5315 11.0843 26.4818C11.0843 20.4629 15.9811 15.5662 22 15.5662C28.0189 15.5662 32.9157 20.463 32.9157 26.4818C32.9157 27.5315 32.0616 28.3855 31.012 28.3855ZM40.1204 21.9759H34.8983C33.7584 18.7223 31.4206 16.0274 28.4159 14.4225C29.7911 13.3897 31.471 12.8192 33.229 12.8192C37.6534 12.8192 41.2531 16.4188 41.2531 20.8433C41.253 21.4678 40.7449 21.9759 40.1204 21.9759Z" fill="#20344D"/>
</svg>
