<svg width="32" height="32" viewBox="0 0 32 32" fill="none" xmlns="http://www.w3.org/2000/svg">
<path fill-rule="evenodd" clip-rule="evenodd" d="M2.66602 8C2.66602 7.26362 3.26297 6.66667 3.99935 6.66667H27.9993C28.7357 6.66667 29.3327 7.26362 29.3327 8C29.3327 8.73638 28.7357 9.33333 27.9993 9.33333H3.99935C3.26297 9.33333 2.66602 8.73638 2.66602 8ZM2.66602 16C2.66602 15.2636 3.26297 14.6667 3.99935 14.6667H27.9993C28.7357 14.6667 29.3327 15.2636 29.3327 16C29.3327 16.7364 28.7357 17.3333 27.9993 17.3333H3.99935C3.26297 17.3333 2.66602 16.7364 2.66602 16ZM2.66602 24C2.66602 23.2636 3.26297 22.6667 3.99935 22.6667H27.9993C28.7357 22.6667 29.3327 23.2636 29.3327 24C29.3327 24.7364 28.7357 25.3333 27.9993 25.3333H3.99935C3.26297 25.3333 2.66602 24.7364 2.66602 24Z" fill="#153345"/>
</svg>
