<svg width="44" height="44" viewBox="0 0 44 44" fill="none" xmlns="http://www.w3.org/2000/svg">
<g clip-path="url(#clip0_256_1106)">
<path d="M43.9063 27.0875C43.5247 25.4478 42.176 24.2367 40.5089 24.0854C39.9463 24.0338 39.3745 24.0774 38.766 24.0774C38.766 23.3074 38.7764 22.5947 38.7638 21.8831C38.7351 20.2411 37.4483 18.936 35.8178 18.9108C34.6319 18.8925 33.4448 18.8925 32.2589 18.912C30.8587 18.9349 29.6796 19.9306 29.4057 21.3102C29.3381 21.6494 29.3313 22.0011 29.2923 22.3942C27.5495 20.9917 25.605 20.1644 23.3729 19.8447C25.4526 17.883 26.5847 15.5409 26.6615 12.7428C26.7382 9.92635 25.7666 7.4926 23.7866 5.49082C20.2769 1.94218 14.6806 1.59041 10.771 4.65666C8.83802 6.1726 7.58563 8.13885 7.13875 10.5543C6.46959 14.1774 7.58104 17.2551 10.2188 19.8435C9.93229 19.8939 9.70656 19.9283 9.48313 19.9742C3.89604 21.1246 0.0907321 25.8007 0.0850029 31.5265C0.0827112 34.2913 0.0850029 37.0551 0.0850029 39.8188C0.0850029 40.9658 0.544482 41.4219 1.70063 41.4219H35.0627C36.7643 41.4219 38.4658 41.4345 40.1663 41.4173C41.9801 41.4001 43.496 40.1615 43.9063 38.3969C43.9326 38.2869 43.9681 38.1792 43.9991 38.0703V27.4141C43.9681 27.3052 43.9326 27.1975 43.9063 27.0875ZM31.9357 21.8453C31.9426 21.717 32.2233 21.5061 32.3826 21.5016C33.4929 21.4718 34.6067 21.4832 35.7181 21.4867C36.0046 21.4878 36.1833 21.6425 36.1879 21.9312C36.1994 22.6268 36.1925 23.3234 36.1925 24.0556H31.914C31.914 23.3154 31.8922 22.5786 31.9357 21.8453ZM9.51979 12.4094C9.53813 8.39895 12.8301 5.14249 16.8497 5.15624C20.8555 5.17114 24.112 8.46541 24.1005 12.4896C24.0879 16.5046 20.8051 19.7725 16.7913 19.7656C12.7659 19.7576 9.50146 16.4553 9.51979 12.4094ZM18.2877 22.3644C18.1433 23.2283 18.0035 24.0659 17.8615 24.9219C17.2083 24.9219 16.5965 24.9299 15.9846 24.9127C15.8941 24.9104 15.7428 24.7993 15.7279 24.7191C15.5858 23.9479 15.4667 23.1733 15.3338 22.3644H18.2877ZM2.6574 38.8254V38.3797C2.6574 36.0743 2.65396 33.7688 2.65854 31.4646C2.66771 26.9305 5.7775 23.2192 10.2348 22.4663C11.0311 22.3311 11.8539 22.3518 12.7052 22.2979C12.8507 23.1573 12.9264 23.9731 13.1338 24.7534C13.5084 26.1639 13.183 27.5367 13.0066 28.9174C12.7213 31.1449 12.4096 33.369 12.1071 35.5942C12.0475 36.0342 12.1804 36.4066 12.4566 36.7469C12.9974 37.4126 13.5268 38.0863 14.1169 38.8254H2.6574ZM18.6131 35.8233C18.007 36.5406 17.4341 37.2854 16.8107 38.0669C16.1209 37.2041 15.4609 36.3848 14.8135 35.5552C14.754 35.4796 14.7459 35.3375 14.7597 35.2321C15.0989 32.6688 15.4438 30.1056 15.7909 27.5195H17.8294C18.0345 29.048 18.2373 30.5617 18.4401 32.0742C18.5684 33.0378 18.6853 34.0026 18.8331 34.964C18.8847 35.2974 18.8412 35.5541 18.6131 35.8233ZM24.1074 37.51C24.1085 37.9339 24.1979 38.3579 24.2518 38.8266H19.5034C19.9595 38.2536 20.3353 37.6991 20.7959 37.2258C21.4468 36.5555 21.5751 35.821 21.4376 34.9124C21.0114 32.0833 20.6367 29.2451 20.2941 26.4057C20.2333 25.8993 20.4109 25.3619 20.4923 24.8417C20.6195 24.0235 20.7593 23.2077 20.8979 22.3701C23.2205 22.2005 25.3312 22.6944 27.2688 24.09C27.1232 24.1416 27.0258 24.1805 26.9273 24.2103C25.2074 24.7236 24.1074 26.1731 24.1028 27.9732C24.0948 31.1518 24.0948 34.3314 24.1074 37.51ZM26.7073 27.7062C26.7612 27.0543 27.3421 26.6429 28.0548 26.6418C30.2399 26.6383 32.425 26.6406 34.6101 26.6406C36.3953 26.6406 38.1805 26.6395 39.9657 26.6418C40.911 26.6418 41.4221 27.154 41.4255 28.097C41.4278 28.7386 41.4255 29.3803 41.4255 30.0632H26.6913C26.6913 29.2669 26.642 28.482 26.7073 27.7062ZM41.4141 37.6441C41.4015 38.3533 40.8125 38.8392 40.0517 38.8415C38.4085 38.8472 36.7666 38.8437 35.1234 38.8437C32.81 38.8437 30.4954 38.8449 28.182 38.8437C27.1748 38.8426 26.6752 38.3476 26.6741 37.3496C26.6729 35.805 26.6741 34.2616 26.6741 32.6872H41.4221C41.4221 34.3567 41.4404 36.0009 41.4141 37.6441Z" fill="#20344D"/>
</g>
<defs>
<clipPath id="clip0_256_1106">
<rect width="44" height="44" fill="white"/>
</clipPath>
</defs>
</svg>
