<svg width="46" height="46" viewBox="0 0 46 46" fill="none" xmlns="http://www.w3.org/2000/svg">
<g clip-path="url(#clip0_266_1359)">
<path d="M25.7763 2.51414C26.6911 3.41359 27.9755 3.83096 29.2442 3.64098C31.4482 3.31104 33.5099 4.8089 33.8771 7.00701C34.0886 8.27247 34.8824 9.36494 36.0205 9.95709C37.9976 10.9856 38.785 13.4092 37.7901 15.4034C37.2174 16.5514 37.2174 17.9018 37.7901 19.0499C38.7851 21.044 37.9976 23.4676 36.0205 24.4961C34.8824 25.0883 34.0886 26.1808 33.8771 27.4462C33.5099 29.6443 31.4482 31.1422 29.2442 30.8122C27.9755 30.6223 26.6911 31.0395 25.7763 31.9391C24.1871 33.5016 21.6389 33.5016 20.0497 31.9391C19.1349 31.0396 17.8505 30.6223 16.5818 30.8122C14.3778 31.1422 12.3161 29.6443 11.9488 27.4462C11.7374 26.1808 10.9436 25.0883 9.80551 24.4961C7.82843 23.4676 7.04102 21.044 8.03587 19.0499C8.6086 17.9018 8.6086 16.5514 8.03587 15.4034C7.04093 13.4092 7.82843 10.9856 9.80551 9.95709C10.9436 9.36494 11.7374 8.27247 11.9488 7.00701C12.3161 4.8089 14.3778 3.31104 16.5818 3.64098C17.8506 3.83096 19.1349 3.41368 20.0497 2.51414C21.6389 0.951667 24.1871 0.951667 25.7763 2.51414Z" stroke="currentColor" stroke-width="2.68466" stroke-miterlimit="10" stroke-linecap="round" stroke-linejoin="round"/>
<path d="M20.041 17.3992L22.0828 19.4409L25.5773 15.9464" stroke="currentColor" stroke-width="2.68466" stroke-miterlimit="10" stroke-linecap="round" stroke-linejoin="round"/>
<path d="M22.9102 26.0858C27.8031 26.0858 31.7695 22.1193 31.7695 17.2264C31.7695 12.3335 27.8031 8.36707 22.9102 8.36707C18.0173 8.36707 14.0508 12.3335 14.0508 17.2264C14.0508 22.1193 18.0173 26.0858 22.9102 26.0858Z" stroke="currentColor" stroke-width="2.68466" stroke-miterlimit="10" stroke-linecap="round" stroke-linejoin="round"/>
<path d="M13.381 29.9257L8.55664 40.2804L15.3265 37.5107L17.561 44.4756L22.8569 33.1097" stroke="currentColor" stroke-width="2.68466" stroke-miterlimit="10" stroke-linecap="round" stroke-linejoin="round"/>
<path d="M32.4427 29.9257L37.2671 40.2804L30.4973 37.5107L28.2627 44.4756L22.9668 33.1097" stroke="currentColor" stroke-width="2.68466" stroke-miterlimit="10" stroke-linecap="round" stroke-linejoin="round"/>
</g>
<defs>
<clipPath id="clip0_266_1359">
<rect width="45.8182" height="45.8182" fill="white"/>
</clipPath>
</defs>
</svg>
