<svg width="44" height="44" viewBox="0 0 44 44" fill="none" xmlns="http://www.w3.org/2000/svg">
<path d="M22 0C17.6488 0 13.3953 1.29028 9.77746 3.70767C6.15958 6.12506 3.33979 9.56099 1.67466 13.581C0.00953229 17.6009 -0.426141 22.0244 0.422734 26.292C1.27161 30.5596 3.3669 34.4796 6.44366 37.5563C9.52041 40.6331 13.4404 42.7284 17.708 43.5773C21.9756 44.4261 26.3991 43.9905 30.419 42.3253C34.439 40.6602 37.8749 37.8404 40.2923 34.2225C42.7097 30.6047 44 26.3512 44 22C44 16.1652 41.6821 10.5694 37.5564 6.44365C33.4305 2.31785 27.8348 0 22 0ZM22 40.3333C18.374 40.3333 14.8295 39.2581 11.8146 37.2436C8.79965 35.2291 6.44982 32.3658 5.06222 29.0159C3.67461 25.6659 3.31155 21.9797 4.01895 18.4233C4.72634 14.867 6.47242 11.6003 9.03638 9.03637C11.6003 6.47241 14.867 4.72633 18.4234 4.01894C21.9797 3.31154 25.6659 3.6746 29.0159 5.06221C32.3658 6.44981 35.2291 8.79964 37.2436 11.8145C39.2581 14.8294 40.3333 18.374 40.3333 22C40.3333 26.8623 38.4018 31.5255 34.9636 34.9636C31.5255 38.4018 26.8623 40.3333 22 40.3333Z" fill="#20344D"/>
<path d="M36.6667 20.1667H34.6867C34.2887 17.4297 33.0171 14.8944 31.0614 12.9387C29.1056 10.9829 26.5704 9.71134 23.8333 9.31339V7.33339C23.8333 6.84716 23.6402 6.38085 23.2964 6.03703C22.9525 5.69322 22.4862 5.50006 22 5.50006C21.5138 5.50006 21.0475 5.69322 20.7036 6.03703C20.3598 6.38085 20.1667 6.84716 20.1667 7.33339V9.31339C17.4296 9.71134 14.8943 10.9829 12.9386 12.9387C10.9829 14.8944 9.71128 17.4297 9.31333 20.1667H7.33333C6.8471 20.1667 6.38079 20.3599 6.03697 20.7037C5.69315 21.0475 5.5 21.5138 5.5 22.0001C5.5 22.4863 5.69315 22.9526 6.03697 23.2964C6.38079 23.6402 6.8471 23.8334 7.33333 23.8334H9.31333C9.71128 26.5705 10.9829 29.1057 12.9386 31.0615C14.8943 33.0172 17.4296 34.2888 20.1667 34.6867V36.6667C20.1667 37.153 20.3598 37.6193 20.7036 37.9631C21.0475 38.3069 21.5138 38.5001 22 38.5001C22.4862 38.5001 22.9525 38.3069 23.2964 37.9631C23.6402 37.6193 23.8333 37.153 23.8333 36.6667V34.6867C26.5704 34.2888 29.1056 33.0172 31.0614 31.0615C33.0171 29.1057 34.2887 26.5705 34.6867 23.8334H36.6667C37.1529 23.8334 37.6192 23.6402 37.963 23.2964C38.3068 22.9526 38.5 22.4863 38.5 22.0001C38.5 21.5138 38.3068 21.0475 37.963 20.7037C37.6192 20.3599 37.1529 20.1667 36.6667 20.1667ZM23.8333 30.9834V29.3334C23.8333 28.8472 23.6402 28.3808 23.2964 28.037C22.9525 27.6932 22.4862 27.5001 22 27.5001C21.5138 27.5001 21.0475 27.6932 20.7036 28.037C20.3598 28.3808 20.1667 28.8472 20.1667 29.3334V30.9834C18.405 30.6241 16.7879 29.7547 15.5166 28.4834C14.2453 27.2121 13.3759 25.595 13.0167 23.8334H14.6667C15.1529 23.8334 15.6192 23.6402 15.963 23.2964C16.3068 22.9526 16.5 22.4863 16.5 22.0001C16.5 21.5138 16.3068 21.0475 15.963 20.7037C15.6192 20.3599 15.1529 20.1667 14.6667 20.1667H13.0167C13.3759 18.4051 14.2453 16.788 15.5166 15.5167C16.7879 14.2454 18.405 13.376 20.1667 13.0167V14.6667C20.1667 15.153 20.3598 15.6193 20.7036 15.9631C21.0475 16.3069 21.5138 16.5001 22 16.5001C22.4862 16.5001 22.9525 16.3069 23.2964 15.9631C23.6402 15.6193 23.8333 15.153 23.8333 14.6667V13.0167C25.595 13.376 27.2121 14.2454 28.4834 15.5167C29.7547 16.788 30.6241 18.4051 30.9833 20.1667H29.3333C28.8471 20.1667 28.3808 20.3599 28.037 20.7037C27.6931 21.0475 27.5 21.5138 27.5 22.0001C27.5 22.4863 27.6931 22.9526 28.037 23.2964C28.3808 23.6402 28.8471 23.8334 29.3333 23.8334H30.9833C30.6241 25.595 29.7547 27.2121 28.4834 28.4834C27.2121 29.7547 25.595 30.6241 23.8333 30.9834Z" fill="#20344D"/>
</svg>
